<svg id="visual" viewBox="0 0 1200 800" width="1200" height="800" xmlns="http://www.w3.org/2000/svg" xmlns:xlink="http://www.w3.org/1999/xlink" version="1.1"><rect x="0" y="0" width="1200" height="800" fill="#002233"></rect><path d="M905 800L889.8 781C874.7 762 844.3 724 835.2 685.8C826 647.7 838 609.3 849.2 571.2C860.3 533 870.7 495 880.2 457C889.7 419 898.3 381 891.5 343C884.7 305 862.3 267 849.7 228.8C837 190.7 834 152.3 831.8 114.2C829.7 76 828.3 38 827.7 19L827 0L1200 0L1200 19C1200 38 1200 76 1200 114.2C1200 152.3 1200 190.7 1200 228.8C1200 267 1200 305 1200 343C1200 381 1200 419 1200 457C1200 495 1200 533 1200 571.2C1200 609.3 1200 647.7 1200 685.8C1200 724 1200 762 1200 781L1200 800Z" fill="#16b978" stroke-linecap="round" stroke-linejoin="miter"></path></svg>