<svg id="visual" viewBox="0 0 1280 900" width="1280" height="900" xmlns="http://www.w3.org/2000/svg" xmlns:xlink="http://www.w3.org/1999/xlink" version="1.1"><rect x="0" y="0" width="1280" height="900" fill="#F5F5F5"></rect><path d="M798 900L795.7 862.5C793.3 825 788.7 750 815.2 675C841.7 600 899.3 525 893.8 450C888.3 375 819.7 300 800.8 225C782 150 813 75 828.5 37.5L844 0L1280 0L1280 37.5C1280 75 1280 150 1280 225C1280 300 1280 375 1280 450C1280 525 1280 600 1280 675C1280 750 1280 825 1280 862.5L1280 900Z" fill="#6b0b17" stroke-linecap="round" stroke-linejoin="miter"></path></svg>